<svg width="20" height="20" viewBox="0 0 20 20" fill="none" xmlns="http://www.w3.org/2000/svg">
<g id="bi:c-circle" clip-path="url(#clip0_216_681)">
<path id="Vector" d="M1.25 10C1.25 12.3206 2.17187 14.5462 3.81282 16.1872C5.45376 17.8281 7.67936 18.75 10 18.75C12.3206 18.75 14.5462 17.8281 16.1872 16.1872C17.8281 14.5462 18.75 12.3206 18.75 10C18.75 7.67936 17.8281 5.45376 16.1872 3.81282C14.5462 2.17187 12.3206 1.25 10 1.25C7.67936 1.25 5.45376 2.17187 3.81282 3.81282C2.17187 5.45376 1.25 7.67936 1.25 10ZM20 10C20 12.6522 18.9464 15.1957 17.0711 17.0711C15.1957 18.9464 12.6522 20 10 20C7.34784 20 4.8043 18.9464 2.92893 17.0711C1.05357 15.1957 0 12.6522 0 10C0 7.34784 1.05357 4.8043 2.92893 2.92893C4.8043 1.05357 7.34784 0 10 0C12.6522 0 15.1957 1.05357 17.0711 2.92893C18.9464 4.8043 20 7.34784 20 10ZM10.1825 6.24C8.6675 6.24 7.77375 7.39 7.77375 9.3675V10.6925C7.77375 12.6562 8.6525 13.77 10.1825 13.77C11.4062 13.77 12.2338 13.0375 12.3438 11.9975H13.9625V12.1138C13.8375 13.9237 12.27 15.1975 10.175 15.1975C7.56125 15.1975 6.08875 13.5275 6.08875 10.6938V9.3525C6.08875 6.52625 7.59 4.805 10.1762 4.805C12.2775 4.805 13.845 6.1225 13.9625 8.02V8.13H12.3438C12.2338 7.03125 11.3837 6.24 10.1825 6.24Z" fill="white"/>
</g>
<defs>
<clipPath id="clip0_216_681">
<rect width="20" height="20" fill="white"/>
</clipPath>
</defs>
</svg>
