<svg width="89" height="16" viewBox="0 0 89 16" fill="none" xmlns="http://www.w3.org/2000/svg">
<path d="M8.42105 12.8589L13.6253 16L12.2442 10.08L16.8421 6.09684L10.7874 5.58316L8.42105 0L6.05474 5.58316L0 6.09684L4.59789 10.08L3.21684 16L8.42105 12.8589Z" fill="#FFA800"/>
<path d="M26.4211 12.8589L31.6253 16L30.2442 10.08L34.8421 6.09684L28.7874 5.58316L26.4211 0L24.0547 5.58316L18 6.09684L22.5979 10.08L21.2168 16L26.4211 12.8589Z" fill="#FFA800"/>
<path d="M44.4211 12.8589L49.6253 16L48.2442 10.08L52.8421 6.09684L46.7874 5.58316L44.4211 0L42.0547 5.58316L36 6.09684L40.5979 10.08L39.2168 16L44.4211 12.8589Z" fill="#FFA800"/>
<path d="M62.4211 12.8589L67.6253 16L66.2442 10.08L70.8421 6.09684L64.7874 5.58316L62.4211 0L60.0547 5.58316L54 6.09684L58.5979 10.08L57.2168 16L62.4211 12.8589Z" fill="#FFA800"/>
<path d="M80.4211 12.8589L85.6253 16L84.2442 10.08L88.8421 6.09684L82.7874 5.58316L80.4211 0L78.0547 5.58316L72 6.09684L76.5979 10.08L75.2168 16L80.4211 12.8589Z" fill="#7E7E7E"/>
</svg>
