<svg width="47" height="47" viewBox="0 0 47 47" fill="none" xmlns="http://www.w3.org/2000/svg">
<g id="ic:sharp-search">
<path id="Vector" d="M30.3328 27.5599H28.8187L28.282 27.0424C30.2253 24.7884 31.2933 21.9109 31.2912 18.9349C31.2912 16.4709 30.5605 14.0622 29.1916 12.0134C27.8226 9.96466 25.8769 8.36784 23.6004 7.4249C21.324 6.48196 18.819 6.23524 16.4023 6.71595C13.9857 7.19666 11.7658 8.3832 10.0235 10.1255C8.28115 11.8679 7.09461 14.0877 6.6139 16.5044C6.13319 18.9211 6.37991 21.426 7.32285 23.7025C8.26579 25.979 9.86261 27.9247 11.9114 29.2936C13.9601 30.6626 16.3688 31.3932 18.8329 31.3932C21.9187 31.3932 24.7554 30.2624 26.9403 28.3841L27.4578 28.9207V30.4349L37.0412 39.9991L39.897 37.1432L30.3328 27.5599ZM18.8329 27.5599C14.0604 27.5599 10.2079 23.7074 10.2079 18.9349C10.2079 14.1624 14.0604 10.3099 18.8329 10.3099C23.6054 10.3099 27.4578 14.1624 27.4578 18.9349C27.4578 23.7074 23.6054 27.5599 18.8329 27.5599Z" fill="black"/>
</g>
</svg>
