<svg width="27" height="22" viewBox="0 0 27 22" fill="none" xmlns="http://www.w3.org/2000/svg">
<g id="Logo_1_">
<path id="white_background" d="M23.8059 5.57933C23.8221 5.81359 23.8221 6.04784 23.8221 6.28426C23.8221 13.4879 18.3487 21.7959 8.34042 21.7959V21.7916C5.38394 21.7959 2.48887 20.9474 0 19.3476C0.429896 19.3994 0.861947 19.4253 1.29508 19.4264C3.74516 19.4285 6.12521 18.6049 8.05274 17.0881C5.72441 17.0439 3.68267 15.5228 2.96941 13.3022C3.78502 13.4599 4.62542 13.4275 5.42596 13.2083C2.88752 12.6945 1.06127 10.4599 1.06127 7.86468C1.06127 7.84093 1.06127 7.81826 1.06127 7.79559C1.81763 8.21769 2.66449 8.45194 3.53075 8.47785C1.13993 6.87692 0.40296 3.69017 1.84672 1.19863C4.60926 4.60452 8.68519 6.67505 13.0607 6.89419C12.6221 5.00071 13.2212 3.01654 14.6348 1.68549C16.8263 -0.378558 20.273 -0.272764 22.333 1.92191C23.5516 1.68117 24.7196 1.23317 25.7884 0.598411C25.3822 1.86037 24.5321 2.93234 23.3965 3.61352C24.475 3.48614 25.5287 3.19682 26.521 2.7553C25.7905 3.85209 24.8704 4.80747 23.8059 5.57933Z" fill="#757575"/>
</g>
</svg>
