<svg width="46" height="46" viewBox="0 0 46 46" fill="none" xmlns="http://www.w3.org/2000/svg">
<g id="raphael:quote">
<path id="Vector" d="M20.8513 8.44203C15.1919 12.0645 12.3629 16.4302 12.3629 21.5333C12.3629 23.1218 12.6403 23.9153 13.1923 23.9153L13.7616 23.7615C14.2101 23.589 14.5709 23.5027 14.8483 23.5027C16.4684 23.5027 17.8239 24.0921 18.9092 25.2708C19.996 26.4496 20.5394 27.9015 20.5394 29.6351C20.5394 31.2983 19.95 32.7113 18.7784 33.8714C17.6054 35.0315 16.1909 35.6108 14.5349 35.6108C12.2234 35.6108 10.3159 34.662 8.81368 32.7602C7.31437 30.8627 6.56543 28.4765 6.56543 25.6058C6.56543 22.357 7.2008 19.3857 8.4773 16.689C9.75668 13.9937 11.7031 11.5571 14.3251 9.37928C16.9471 7.20291 18.6203 6.11328 19.3448 6.11328C19.8278 6.11328 20.2246 6.34616 20.5351 6.81191C20.8456 7.27622 21.0008 7.68159 21.0008 8.02659L20.847 8.44059L20.8513 8.44203ZM39.4813 8.44203C33.8219 12.0645 30.9943 16.4288 30.9943 21.5348C30.9943 23.1232 31.2717 23.9167 31.8237 23.9167L32.393 23.7629C32.8415 23.5904 33.2023 23.5042 33.4797 23.5042C35.0653 23.5042 36.4122 24.0935 37.5148 25.2723C38.6217 26.451 39.1708 27.9029 39.1708 29.6365C39.1708 31.2997 38.5814 32.7128 37.4099 33.8728C36.2369 35.0329 34.8224 35.6122 33.1664 35.6122C30.8549 35.6122 28.9473 34.6635 27.4451 32.7617C25.9458 30.8642 25.1969 28.4779 25.1969 25.6072C25.1969 22.324 25.8409 19.3253 27.1375 16.6142C28.4312 13.9017 30.3791 11.4723 32.9838 9.33041C35.5929 7.18709 37.2561 6.11472 37.9791 6.11472C38.4636 6.11472 38.8603 6.34759 39.1722 6.81334C39.4813 7.27909 39.6366 7.68447 39.6366 8.02947L39.4813 8.44203Z" fill="black"/>
</g>
</svg>
