<svg width="25" height="24" viewBox="0 0 25 24" fill="none" xmlns="http://www.w3.org/2000/svg">
<path id="Vector" d="M7.55112 0.0839254C6.27432 0.144166 5.40239 0.347926 4.64015 0.647447C3.85127 0.954889 3.18262 1.36745 2.51734 2.03513C1.85206 2.70281 1.44238 3.37194 1.1371 4.16202C0.841657 4.92594 0.641496 5.79859 0.585096 7.07611C0.528696 8.35363 0.516216 8.76428 0.522456 12.023C0.528696 15.2817 0.543096 15.6902 0.605016 16.9704C0.665976 18.2469 0.869017 19.1186 1.16854 19.8811C1.47646 20.67 1.88854 21.3384 2.55646 22.0039C3.22438 22.6694 3.89303 23.0782 4.68503 23.3839C5.44823 23.6789 6.32112 23.88 7.5984 23.9359C8.87568 23.9918 9.28681 24.0048 12.5446 23.9986C15.8023 23.9923 16.2125 23.9779 17.4924 23.9172C18.7724 23.8565 19.6395 23.652 20.4022 23.3539C21.1911 23.0453 21.86 22.6339 22.525 21.9658C23.1901 21.2976 23.5995 20.628 23.9045 19.8374C24.2002 19.0742 24.4011 18.2013 24.4565 16.925C24.5125 15.6441 24.5257 15.2352 24.5194 11.9769C24.5132 8.71868 24.4985 8.31019 24.4378 7.03051C24.3771 5.75083 24.1738 4.88178 23.8745 4.11882C23.5661 3.32994 23.1545 2.66201 22.4869 1.99601C21.8192 1.33001 21.1491 0.920808 20.3588 0.616487C19.5951 0.321046 18.7227 0.119686 17.4454 0.0644854C16.1681 0.00928517 15.757 -0.00487488 12.498 0.00136514C9.23905 0.00760516 8.83105 0.0215252 7.55112 0.0839254ZM7.69128 21.7771C6.52128 21.7262 5.88599 21.5318 5.46263 21.3691C4.90199 21.1531 4.50263 20.892 4.08071 20.4742C3.65879 20.0563 3.39959 19.6555 3.1807 19.0961C3.0163 18.6727 2.8183 18.0381 2.76358 16.8681C2.70406 15.6036 2.69158 15.2239 2.68462 12.0201C2.67766 8.81636 2.6899 8.43715 2.74534 7.17211C2.79526 6.00307 2.99086 5.36706 3.15334 4.94394C3.36935 4.38258 3.62951 3.98394 4.04831 3.56226C4.46711 3.14058 4.86671 2.8809 5.42663 2.66201C5.84951 2.49689 6.48408 2.30057 7.6536 2.24489C8.91912 2.18489 9.29833 2.17289 12.5016 2.16593C15.7049 2.15897 16.0851 2.17097 17.3511 2.22665C18.5201 2.27753 19.1564 2.47121 19.579 2.63465C20.1399 2.85066 20.539 3.1101 20.9607 3.52962C21.3824 3.94914 21.6423 4.3473 21.8612 4.90842C22.0265 5.3301 22.2228 5.96443 22.278 7.13467C22.3383 8.4002 22.352 8.77964 22.3577 11.9827C22.3635 15.1857 22.3522 15.5661 22.2968 16.8307C22.2456 18.0007 22.0517 18.6362 21.8888 19.0601C21.6728 19.6205 21.4124 20.0201 20.9933 20.4415C20.5743 20.863 20.1752 21.1226 19.615 21.3415C19.1926 21.5064 18.5573 21.7032 17.3888 21.7589C16.1232 21.8184 15.744 21.8309 12.5395 21.8378C9.33505 21.8448 8.95704 21.8318 7.69152 21.7771M17.474 5.58642C17.4744 5.87125 17.5594 6.14954 17.718 6.38609C17.8767 6.62265 18.1019 6.80684 18.3652 6.91538C18.6286 7.02391 18.9182 7.05192 19.1974 6.99585C19.4767 6.93978 19.733 6.80216 19.9341 6.60039C20.1351 6.39862 20.2718 6.14176 20.3268 5.8623C20.3819 5.58285 20.3528 5.29334 20.2433 5.03041C20.1338 4.76747 19.9488 4.54291 19.7116 4.38514C19.4745 4.22736 19.1959 4.14345 18.9111 4.14402C18.5292 4.14478 18.1634 4.29716 17.8939 4.56765C17.6244 4.83814 17.4733 5.20459 17.474 5.58642ZM6.35952 12.012C6.36624 15.4152 9.13009 18.1677 12.5326 18.1613C15.9351 18.1548 18.6896 15.3912 18.6831 11.988C18.6766 8.58475 15.912 5.83147 12.5091 5.83819C9.10609 5.84491 6.35304 8.60924 6.35952 12.012ZM8.52096 12.0076C8.5194 11.2165 8.75247 10.4427 9.1907 9.78399C9.62894 9.12531 10.2526 8.61137 10.983 8.30717C11.7133 8.00296 12.5174 7.92216 13.2937 8.07496C14.0699 8.22777 14.7834 8.60733 15.3439 9.16565C15.9045 9.72396 16.2868 10.436 16.4427 11.2116C16.5986 11.9872 16.521 12.7917 16.2197 13.5232C15.9184 14.2547 15.4069 14.8804 14.75 15.3213C14.093 15.7621 13.3201 15.9983 12.529 15.9998C12.0037 16.0009 11.4833 15.8985 10.9975 15.6985C10.5118 15.4985 10.0702 15.2047 9.69802 14.834C9.32583 14.4632 9.03031 14.0228 8.82835 13.5379C8.62639 13.0529 8.52194 12.533 8.52096 12.0076Z" fill="#757575"/>
</svg>
