<svg width="35" height="24" viewBox="0 0 35 24" fill="none" xmlns="http://www.w3.org/2000/svg">
<g id="YouTube svg" clip-path="url(#clip0_216_675)">
<g id="g10">
<g id="g12">
<path id="path14" d="M33.9885 3.74768C33.5954 2.27245 32.4373 1.11077 30.9665 0.716516C28.3009 0 17.6119 0 17.6119 0C17.6119 0 6.92296 0 4.25728 0.716516C2.78663 1.11077 1.62832 2.27245 1.23527 3.74768C0.520996 6.42141 0.520996 12 0.520996 12C0.520996 12 0.520996 17.5785 1.23527 20.2525C1.62832 21.7275 2.78663 22.8892 4.25728 23.2836C6.92296 24 17.6119 24 17.6119 24C17.6119 24 28.3009 24 30.9665 23.2836C32.4373 22.8892 33.5954 21.7275 33.9885 20.2525C34.7028 17.5785 34.7028 12 34.7028 12C34.7028 12 34.7028 6.42141 33.9885 3.74768Z" fill="#757575"/>
<path id="path16" d="M14.1162 17.0649L23.0501 12.0003L14.1162 6.9351V17.0649Z" fill="#0E0D0B"/>
</g>
</g>
</g>
<defs>
<clipPath id="clip0_216_675">
<rect width="34.1818" height="24" fill="white" transform="translate(0.520996)"/>
</clipPath>
</defs>
</svg>
